<svg xmlns="http://www.w3.org/2000/svg" width="500" height="350"><rect id="backgroundrect" width="100%" height="100%" x="0" y="0" fill="none" stroke="none"/>

 <g style="">
  <title>background</title>
  <rect fill="none" id="canvas_background" height="352" width="502" y="-1" x="-1"/>
 </g>
 <g style="" class="currentLayer">
  <title>Layer 1</title>
  <g id="svg_1" class="selected" fill="#ffffff" fill-opacity="1">
   <path id="svg_2" d="m485.075012,146.349993l-83.5,-113.9c-11,-15 -33.3,-26.3 -51.8,-26.3l-304.5,0c-21.6,0 -39.2,17.6 -39.2,39.2l0,259.3c0,21.6 17.6,39.2 39.2,39.2l304.5,0c18.6,0 40.9,-11.3 51.8,-26.3l83.5,-113.9c11.8,-16 11.8,-41.2 0,-57.3zm-21.8,41.5l-83.5,113.9c-5.8,8 -20.2,15.2 -30.1,15.2l-304.4,0c-6.7,0 -12.2,-5.5 -12.2,-12.2l0,-259.4c0,-6.7 5.5,-12.2 12.2,-12.2l304.5,0c9.9,0 24.2,7.3 30.1,15.2l83.5,113.9c4.8,6.7 4.8,18.9 -0.1,25.6z" fill="#ffffff" fill-opacity="1"/>
  </g>
  <g id="svg_3"/>
  <g id="svg_4"/>
  <g id="svg_5"/>
  <g id="svg_6"/>
  <g id="svg_7"/>
  <g id="svg_8"/>
  <g id="svg_9"/>
  <g id="svg_10"/>
  <g id="svg_11"/>
  <g id="svg_12"/>
  <g id="svg_13"/>
  <g id="svg_14"/>
  <g id="svg_15"/>
  <g id="svg_16"/>
  <g id="svg_17"/>
 </g>
</svg>